<mxfile host="Electron" modified="2024-03-26T08:31:18.877Z" agent="Mozilla/5.0 (Windows NT 10.0; Win64; x64) AppleWebKit/537.36 (KHTML, like Gecko) draw.io/24.1.0 Chrome/120.0.6099.109 Electron/28.1.0 Safari/537.36" etag="Yc7CnjtBC2Tnz4Tq2O4s" version="24.1.0" type="device">
  <diagram name="Page-1" id="e7e014a7-5840-1c2e-5031-d8a46d1fe8dd">
    <mxGraphModel dx="1434" dy="844" grid="1" gridSize="10" guides="1" tooltips="1" connect="1" arrows="1" fold="1" page="1" pageScale="1" pageWidth="1169" pageHeight="826" background="none" math="0" shadow="0">
      <root>
        <mxCell id="0" />
        <mxCell id="1" parent="0" />
        <mxCell id="2" value="Наблюдение за пациентом" style="swimlane;whiteSpace=wrap" parent="1" vertex="1">
          <mxGeometry x="40" y="60" width="970" height="680" as="geometry" />
        </mxCell>
        <mxCell id="Uqyelw6KVCxdMRrDc3QY-46" style="edgeStyle=orthogonalEdgeStyle;rounded=0;orthogonalLoop=1;jettySize=auto;html=1;exitX=0.5;exitY=1;exitDx=0;exitDy=0;entryX=0.5;entryY=0;entryDx=0;entryDy=0;" edge="1" parent="2" source="5" target="7">
          <mxGeometry relative="1" as="geometry" />
        </mxCell>
        <mxCell id="5" value="" style="ellipse;shape=startState;fillColor=#000000;strokeColor=#ff0000;" parent="2" vertex="1">
          <mxGeometry x="100" y="40" width="30" height="30" as="geometry" />
        </mxCell>
        <mxCell id="Uqyelw6KVCxdMRrDc3QY-52" style="edgeStyle=orthogonalEdgeStyle;rounded=0;orthogonalLoop=1;jettySize=auto;html=1;exitX=0.5;exitY=1;exitDx=0;exitDy=0;entryX=0.5;entryY=0;entryDx=0;entryDy=0;" edge="1" parent="2" source="7" target="Uqyelw6KVCxdMRrDc3QY-51">
          <mxGeometry relative="1" as="geometry" />
        </mxCell>
        <mxCell id="7" value="Приход пациента" style="" parent="2" vertex="1">
          <mxGeometry x="60" y="110" width="110" height="50" as="geometry" />
        </mxCell>
        <mxCell id="Uqyelw6KVCxdMRrDc3QY-41" value="" style="ellipse;shape=endState;fillColor=#000000;strokeColor=#ff0000" vertex="1" parent="2">
          <mxGeometry x="470" y="580" width="30" height="30" as="geometry" />
        </mxCell>
        <mxCell id="Uqyelw6KVCxdMRrDc3QY-54" style="edgeStyle=orthogonalEdgeStyle;rounded=0;orthogonalLoop=1;jettySize=auto;html=1;exitX=0.5;exitY=1;exitDx=0;exitDy=0;entryX=0;entryY=0.5;entryDx=0;entryDy=0;" edge="1" parent="2" source="Uqyelw6KVCxdMRrDc3QY-44" target="Uqyelw6KVCxdMRrDc3QY-47">
          <mxGeometry relative="1" as="geometry" />
        </mxCell>
        <mxCell id="Uqyelw6KVCxdMRrDc3QY-44" value="Выделение или посление в палате" style="html=1;whiteSpace=wrap;" vertex="1" parent="2">
          <mxGeometry x="60" y="303" width="110" height="50" as="geometry" />
        </mxCell>
        <mxCell id="Uqyelw6KVCxdMRrDc3QY-55" style="edgeStyle=orthogonalEdgeStyle;rounded=0;orthogonalLoop=1;jettySize=auto;html=1;exitX=0.5;exitY=0;exitDx=0;exitDy=0;entryX=0.5;entryY=1;entryDx=0;entryDy=0;" edge="1" parent="2" source="Uqyelw6KVCxdMRrDc3QY-47" target="Uqyelw6KVCxdMRrDc3QY-49">
          <mxGeometry relative="1" as="geometry" />
        </mxCell>
        <mxCell id="Uqyelw6KVCxdMRrDc3QY-47" value="Наблюдение за пациентом" style="html=1;whiteSpace=wrap;" vertex="1" parent="2">
          <mxGeometry x="215" y="390" width="110" height="50" as="geometry" />
        </mxCell>
        <mxCell id="Uqyelw6KVCxdMRrDc3QY-57" style="edgeStyle=orthogonalEdgeStyle;rounded=0;orthogonalLoop=1;jettySize=auto;html=1;exitX=0.5;exitY=0;exitDx=0;exitDy=0;entryX=0.5;entryY=1;entryDx=0;entryDy=0;" edge="1" parent="2" source="Uqyelw6KVCxdMRrDc3QY-49" target="Uqyelw6KVCxdMRrDc3QY-56">
          <mxGeometry relative="1" as="geometry" />
        </mxCell>
        <mxCell id="Uqyelw6KVCxdMRrDc3QY-68" value="Да" style="edgeLabel;html=1;align=center;verticalAlign=middle;resizable=0;points=[];" vertex="1" connectable="0" parent="Uqyelw6KVCxdMRrDc3QY-57">
          <mxGeometry x="-0.32" relative="1" as="geometry">
            <mxPoint as="offset" />
          </mxGeometry>
        </mxCell>
        <mxCell id="Uqyelw6KVCxdMRrDc3QY-69" style="edgeStyle=orthogonalEdgeStyle;rounded=0;orthogonalLoop=1;jettySize=auto;html=1;exitX=1;exitY=0.5;exitDx=0;exitDy=0;entryX=0;entryY=0.5;entryDx=0;entryDy=0;" edge="1" parent="2" source="Uqyelw6KVCxdMRrDc3QY-49" target="Uqyelw6KVCxdMRrDc3QY-84">
          <mxGeometry relative="1" as="geometry" />
        </mxCell>
        <mxCell id="Uqyelw6KVCxdMRrDc3QY-70" value="Нет" style="edgeLabel;html=1;align=center;verticalAlign=middle;resizable=0;points=[];" vertex="1" connectable="0" parent="Uqyelw6KVCxdMRrDc3QY-69">
          <mxGeometry x="-0.6364" relative="1" as="geometry">
            <mxPoint as="offset" />
          </mxGeometry>
        </mxCell>
        <mxCell id="Uqyelw6KVCxdMRrDc3QY-49" value="Есть ли изменения в&amp;nbsp;&lt;div&gt;состоянии здоровья&lt;/div&gt;" style="rhombus;whiteSpace=wrap;html=1;" vertex="1" parent="2">
          <mxGeometry x="175" y="250" width="190" height="80" as="geometry" />
        </mxCell>
        <mxCell id="Uqyelw6KVCxdMRrDc3QY-53" style="edgeStyle=orthogonalEdgeStyle;rounded=0;orthogonalLoop=1;jettySize=auto;html=1;exitX=0.5;exitY=1;exitDx=0;exitDy=0;entryX=0.5;entryY=0;entryDx=0;entryDy=0;" edge="1" parent="2" source="Uqyelw6KVCxdMRrDc3QY-51" target="Uqyelw6KVCxdMRrDc3QY-44">
          <mxGeometry relative="1" as="geometry" />
        </mxCell>
        <mxCell id="Uqyelw6KVCxdMRrDc3QY-51" value="Оформление документов" style="rounded=0;whiteSpace=wrap;html=1;" vertex="1" parent="2">
          <mxGeometry x="55" y="200" width="120" height="60" as="geometry" />
        </mxCell>
        <mxCell id="Uqyelw6KVCxdMRrDc3QY-59" style="edgeStyle=orthogonalEdgeStyle;rounded=0;orthogonalLoop=1;jettySize=auto;html=1;exitX=1;exitY=0.5;exitDx=0;exitDy=0;entryX=0;entryY=0.5;entryDx=0;entryDy=0;" edge="1" parent="2" source="Uqyelw6KVCxdMRrDc3QY-56" target="Uqyelw6KVCxdMRrDc3QY-58">
          <mxGeometry relative="1" as="geometry" />
        </mxCell>
        <mxCell id="Uqyelw6KVCxdMRrDc3QY-62" style="rounded=0;orthogonalLoop=1;jettySize=auto;html=1;exitX=0.75;exitY=0;exitDx=0;exitDy=0;entryX=0.75;entryY=1;entryDx=0;entryDy=0;dashed=1;" edge="1" parent="2" source="Uqyelw6KVCxdMRrDc3QY-56" target="Uqyelw6KVCxdMRrDc3QY-60">
          <mxGeometry relative="1" as="geometry" />
        </mxCell>
        <mxCell id="Uqyelw6KVCxdMRrDc3QY-56" value="Вопросы и ответы пациенту о его состоянии здоровья" style="rounded=0;whiteSpace=wrap;html=1;" vertex="1" parent="2">
          <mxGeometry x="210" y="140" width="120" height="60" as="geometry" />
        </mxCell>
        <mxCell id="Uqyelw6KVCxdMRrDc3QY-64" style="edgeStyle=orthogonalEdgeStyle;rounded=0;orthogonalLoop=1;jettySize=auto;html=1;exitX=1;exitY=0.5;exitDx=0;exitDy=0;entryX=0.5;entryY=0;entryDx=0;entryDy=0;" edge="1" parent="2" source="Uqyelw6KVCxdMRrDc3QY-58" target="Uqyelw6KVCxdMRrDc3QY-63">
          <mxGeometry relative="1" as="geometry" />
        </mxCell>
        <mxCell id="Uqyelw6KVCxdMRrDc3QY-65" value="Да" style="edgeLabel;html=1;align=center;verticalAlign=middle;resizable=0;points=[];" vertex="1" connectable="0" parent="Uqyelw6KVCxdMRrDc3QY-64">
          <mxGeometry x="-0.4875" y="-3" relative="1" as="geometry">
            <mxPoint as="offset" />
          </mxGeometry>
        </mxCell>
        <mxCell id="Uqyelw6KVCxdMRrDc3QY-66" style="edgeStyle=orthogonalEdgeStyle;rounded=0;orthogonalLoop=1;jettySize=auto;html=1;exitX=0.5;exitY=1;exitDx=0;exitDy=0;entryX=1;entryY=0.5;entryDx=0;entryDy=0;" edge="1" parent="2" source="Uqyelw6KVCxdMRrDc3QY-58" target="Uqyelw6KVCxdMRrDc3QY-47">
          <mxGeometry relative="1" as="geometry" />
        </mxCell>
        <mxCell id="Uqyelw6KVCxdMRrDc3QY-67" value="Нет" style="edgeLabel;html=1;align=center;verticalAlign=middle;resizable=0;points=[];" vertex="1" connectable="0" parent="Uqyelw6KVCxdMRrDc3QY-66">
          <mxGeometry x="-0.6743" y="-2" relative="1" as="geometry">
            <mxPoint as="offset" />
          </mxGeometry>
        </mxCell>
        <mxCell id="Uqyelw6KVCxdMRrDc3QY-58" value="Состояние состояние улучшилось" style="rhombus;whiteSpace=wrap;html=1;" vertex="1" parent="2">
          <mxGeometry x="460" y="130" width="190" height="80" as="geometry" />
        </mxCell>
        <mxCell id="Uqyelw6KVCxdMRrDc3QY-61" style="rounded=0;orthogonalLoop=1;jettySize=auto;html=1;exitX=0.25;exitY=1;exitDx=0;exitDy=0;entryX=0.25;entryY=0;entryDx=0;entryDy=0;dashed=1;" edge="1" parent="2" source="Uqyelw6KVCxdMRrDc3QY-60" target="Uqyelw6KVCxdMRrDc3QY-56">
          <mxGeometry relative="1" as="geometry" />
        </mxCell>
        <mxCell id="Uqyelw6KVCxdMRrDc3QY-60" value="Запись сохранение вопросов и результатов ответов" style="rounded=0;whiteSpace=wrap;html=1;" vertex="1" parent="2">
          <mxGeometry x="175" y="40" width="120" height="60" as="geometry" />
        </mxCell>
        <mxCell id="Uqyelw6KVCxdMRrDc3QY-73" style="edgeStyle=orthogonalEdgeStyle;rounded=0;orthogonalLoop=1;jettySize=auto;html=1;exitX=1;exitY=0.5;exitDx=0;exitDy=0;entryX=0.5;entryY=0;entryDx=0;entryDy=0;" edge="1" parent="2" source="Uqyelw6KVCxdMRrDc3QY-63" target="Uqyelw6KVCxdMRrDc3QY-72">
          <mxGeometry relative="1" as="geometry" />
        </mxCell>
        <mxCell id="Uqyelw6KVCxdMRrDc3QY-91" value="Да" style="edgeLabel;html=1;align=center;verticalAlign=middle;resizable=0;points=[];" vertex="1" connectable="0" parent="Uqyelw6KVCxdMRrDc3QY-73">
          <mxGeometry x="-0.0538" relative="1" as="geometry">
            <mxPoint as="offset" />
          </mxGeometry>
        </mxCell>
        <mxCell id="Uqyelw6KVCxdMRrDc3QY-92" style="edgeStyle=orthogonalEdgeStyle;rounded=0;orthogonalLoop=1;jettySize=auto;html=1;exitX=0.5;exitY=1;exitDx=0;exitDy=0;entryX=1;entryY=0.75;entryDx=0;entryDy=0;" edge="1" parent="2" source="Uqyelw6KVCxdMRrDc3QY-63" target="Uqyelw6KVCxdMRrDc3QY-47">
          <mxGeometry relative="1" as="geometry" />
        </mxCell>
        <mxCell id="Uqyelw6KVCxdMRrDc3QY-93" value="Нет" style="edgeLabel;html=1;align=center;verticalAlign=middle;resizable=0;points=[];" vertex="1" connectable="0" parent="Uqyelw6KVCxdMRrDc3QY-92">
          <mxGeometry x="-0.8964" y="-3" relative="1" as="geometry">
            <mxPoint as="offset" />
          </mxGeometry>
        </mxCell>
        <mxCell id="Uqyelw6KVCxdMRrDc3QY-63" value="Состояние&amp;nbsp;&lt;div&gt;&amp;nbsp;улучшилось на столько что можно выписать&lt;/div&gt;" style="rhombus;whiteSpace=wrap;html=1;" vertex="1" parent="2">
          <mxGeometry x="590" y="250" width="240" height="80" as="geometry" />
        </mxCell>
        <mxCell id="Uqyelw6KVCxdMRrDc3QY-76" style="edgeStyle=orthogonalEdgeStyle;rounded=0;orthogonalLoop=1;jettySize=auto;html=1;exitX=0.5;exitY=1;exitDx=0;exitDy=0;entryX=0.5;entryY=0;entryDx=0;entryDy=0;" edge="1" parent="2" source="Uqyelw6KVCxdMRrDc3QY-72" target="Uqyelw6KVCxdMRrDc3QY-74">
          <mxGeometry relative="1" as="geometry" />
        </mxCell>
        <mxCell id="Uqyelw6KVCxdMRrDc3QY-94" value="Да" style="edgeLabel;html=1;align=center;verticalAlign=middle;resizable=0;points=[];" vertex="1" connectable="0" parent="Uqyelw6KVCxdMRrDc3QY-76">
          <mxGeometry x="-0.4054" y="-2" relative="1" as="geometry">
            <mxPoint as="offset" />
          </mxGeometry>
        </mxCell>
        <mxCell id="Uqyelw6KVCxdMRrDc3QY-95" style="edgeStyle=orthogonalEdgeStyle;rounded=0;orthogonalLoop=1;jettySize=auto;html=1;exitX=0;exitY=0.5;exitDx=0;exitDy=0;entryX=1;entryY=0.25;entryDx=0;entryDy=0;" edge="1" parent="2" source="Uqyelw6KVCxdMRrDc3QY-72" target="Uqyelw6KVCxdMRrDc3QY-82">
          <mxGeometry relative="1" as="geometry" />
        </mxCell>
        <mxCell id="Uqyelw6KVCxdMRrDc3QY-96" value="Нет" style="edgeLabel;html=1;align=center;verticalAlign=middle;resizable=0;points=[];" vertex="1" connectable="0" parent="Uqyelw6KVCxdMRrDc3QY-95">
          <mxGeometry x="-0.5679" y="2" relative="1" as="geometry">
            <mxPoint as="offset" />
          </mxGeometry>
        </mxCell>
        <mxCell id="Uqyelw6KVCxdMRrDc3QY-72" value="Нужны ли медикоменты" style="rhombus;whiteSpace=wrap;html=1;" vertex="1" parent="2">
          <mxGeometry x="770" y="353" width="180" height="80" as="geometry" />
        </mxCell>
        <mxCell id="Uqyelw6KVCxdMRrDc3QY-77" style="edgeStyle=orthogonalEdgeStyle;rounded=0;orthogonalLoop=1;jettySize=auto;html=1;exitX=0.25;exitY=1;exitDx=0;exitDy=0;entryX=0.25;entryY=0;entryDx=0;entryDy=0;dashed=1;" edge="1" parent="2" source="Uqyelw6KVCxdMRrDc3QY-74" target="Uqyelw6KVCxdMRrDc3QY-75">
          <mxGeometry relative="1" as="geometry" />
        </mxCell>
        <mxCell id="Uqyelw6KVCxdMRrDc3QY-88" style="edgeStyle=orthogonalEdgeStyle;rounded=0;orthogonalLoop=1;jettySize=auto;html=1;exitX=0;exitY=0.5;exitDx=0;exitDy=0;entryX=1;entryY=0.5;entryDx=0;entryDy=0;" edge="1" parent="2" source="Uqyelw6KVCxdMRrDc3QY-74" target="Uqyelw6KVCxdMRrDc3QY-82">
          <mxGeometry relative="1" as="geometry" />
        </mxCell>
        <mxCell id="Uqyelw6KVCxdMRrDc3QY-74" value="Запись медикоментов" style="rounded=0;whiteSpace=wrap;html=1;" vertex="1" parent="2">
          <mxGeometry x="800" y="470" width="120" height="60" as="geometry" />
        </mxCell>
        <mxCell id="Uqyelw6KVCxdMRrDc3QY-79" style="edgeStyle=orthogonalEdgeStyle;rounded=0;orthogonalLoop=1;jettySize=auto;html=1;exitX=0.75;exitY=0;exitDx=0;exitDy=0;entryX=0.75;entryY=1;entryDx=0;entryDy=0;dashed=1;" edge="1" parent="2" source="Uqyelw6KVCxdMRrDc3QY-75" target="Uqyelw6KVCxdMRrDc3QY-74">
          <mxGeometry relative="1" as="geometry" />
        </mxCell>
        <mxCell id="Uqyelw6KVCxdMRrDc3QY-75" value="сохранение списка выписанных медикоментов" style="rounded=0;whiteSpace=wrap;html=1;" vertex="1" parent="2">
          <mxGeometry x="800" y="570" width="120" height="60" as="geometry" />
        </mxCell>
        <mxCell id="Uqyelw6KVCxdMRrDc3QY-90" style="edgeStyle=orthogonalEdgeStyle;rounded=0;orthogonalLoop=1;jettySize=auto;html=1;exitX=0.5;exitY=1;exitDx=0;exitDy=0;entryX=0.5;entryY=0;entryDx=0;entryDy=0;" edge="1" parent="2" source="Uqyelw6KVCxdMRrDc3QY-81" target="Uqyelw6KVCxdMRrDc3QY-41">
          <mxGeometry relative="1" as="geometry" />
        </mxCell>
        <mxCell id="Uqyelw6KVCxdMRrDc3QY-81" value="Выписка" style="rounded=0;whiteSpace=wrap;html=1;" vertex="1" parent="2">
          <mxGeometry x="435" y="490" width="120" height="60" as="geometry" />
        </mxCell>
        <mxCell id="Uqyelw6KVCxdMRrDc3QY-89" style="edgeStyle=orthogonalEdgeStyle;rounded=0;orthogonalLoop=1;jettySize=auto;html=1;exitX=0;exitY=0.5;exitDx=0;exitDy=0;entryX=1;entryY=0.5;entryDx=0;entryDy=0;" edge="1" parent="2" source="Uqyelw6KVCxdMRrDc3QY-82" target="Uqyelw6KVCxdMRrDc3QY-81">
          <mxGeometry relative="1" as="geometry" />
        </mxCell>
        <mxCell id="Uqyelw6KVCxdMRrDc3QY-82" value="Оформление документов о выписке" style="rounded=0;whiteSpace=wrap;html=1;" vertex="1" parent="2">
          <mxGeometry x="620" y="490" width="120" height="60" as="geometry" />
        </mxCell>
        <mxCell id="Uqyelw6KVCxdMRrDc3QY-83" style="rounded=0;orthogonalLoop=1;jettySize=auto;html=1;exitX=0.75;exitY=0;exitDx=0;exitDy=0;entryX=0.75;entryY=1;entryDx=0;entryDy=0;dashed=1;" edge="1" parent="2" source="Uqyelw6KVCxdMRrDc3QY-84" target="Uqyelw6KVCxdMRrDc3QY-86">
          <mxGeometry relative="1" as="geometry" />
        </mxCell>
        <mxCell id="Uqyelw6KVCxdMRrDc3QY-87" style="edgeStyle=orthogonalEdgeStyle;rounded=0;orthogonalLoop=1;jettySize=auto;html=1;exitX=0;exitY=0.75;exitDx=0;exitDy=0;entryX=1;entryY=0.25;entryDx=0;entryDy=0;" edge="1" parent="2" source="Uqyelw6KVCxdMRrDc3QY-84" target="Uqyelw6KVCxdMRrDc3QY-47">
          <mxGeometry relative="1" as="geometry" />
        </mxCell>
        <mxCell id="Uqyelw6KVCxdMRrDc3QY-84" value="Запись о состоянии пациента" style="rounded=0;whiteSpace=wrap;html=1;" vertex="1" parent="2">
          <mxGeometry x="405" y="320" width="120" height="60" as="geometry" />
        </mxCell>
        <mxCell id="Uqyelw6KVCxdMRrDc3QY-85" style="rounded=0;orthogonalLoop=1;jettySize=auto;html=1;exitX=0.25;exitY=1;exitDx=0;exitDy=0;entryX=0.25;entryY=0;entryDx=0;entryDy=0;dashed=1;" edge="1" parent="2" source="Uqyelw6KVCxdMRrDc3QY-86" target="Uqyelw6KVCxdMRrDc3QY-84">
          <mxGeometry relative="1" as="geometry" />
        </mxCell>
        <mxCell id="Uqyelw6KVCxdMRrDc3QY-86" value="Сохранение записи о состоянии пациента" style="rounded=0;whiteSpace=wrap;html=1;" vertex="1" parent="2">
          <mxGeometry x="405" y="220" width="120" height="60" as="geometry" />
        </mxCell>
      </root>
    </mxGraphModel>
  </diagram>
</mxfile>
